<svg xmlns="http://www.w3.org/2000/svg" xmlns:svg="http://www.w3.org/2000/svg" xmlns:xlink="http://www.w3.org/1999/xlink" id="svg3162" width="152" height="152" version="1.1"><metadata id="metadata3168"/><defs id="defs3166"><linearGradient id="linearGradient3944"><stop style="stop-color:#483c98;stop-opacity:1" id="stop3946" offset="0"/><stop style="stop-color:#8075c9;stop-opacity:1" id="stop3948" offset="1"/></linearGradient><linearGradient id="linearGradient3950" x1="116.831" x2="115.352" y1=".5" y2="227.458" gradientTransform="matrix(0.67555556,0,0,0.67555556,0,-0.67555559)" gradientUnits="userSpaceOnUse" xlink:href="#linearGradient3944"/></defs><rect style="fill:url(#linearGradient3950);fill-opacity:1;fill-rule:evenodd;stroke:none" id="rect3172" width="152" height="152" x="0" y="0" ry="34.724"/><rect style="fill:#fff;fill-opacity:1;stroke:none" id="rect3952" width="5" height="80" x="25" y="37" ry="1"/><rect id="rect3954" width="3.053" height="80" x="35" y="37" ry="1" style="fill:#fff;fill-opacity:1;stroke:none"/><rect style="fill:#fff;fill-opacity:1;stroke:none" id="rect3956" width="5" height="80" x="45" y="37" ry="1"/><rect id="rect3958" width="3" height="80" x="55" y="37" ry="1" style="fill:#fff;fill-opacity:1;stroke:none"/><rect style="fill:#fff;fill-opacity:1;stroke:none" id="rect3960" width="3" height="80" x="65" y="37" ry="1"/><rect id="rect3962" width="3" height="80" x="75" y="37" ry="1" style="fill:#fff;fill-opacity:1;stroke:none"/><rect style="fill:#fff;fill-opacity:1;stroke:none" id="rect3964" width="5" height="80" x="80" y="37" ry="1"/><rect id="rect3966" width="3" height="80" x="90" y="37" ry="1" style="fill:#fff;fill-opacity:1;stroke:none"/><rect id="rect3968" width="5" height="80" x="100.02" y="37" ry="1" style="fill:#fff;fill-opacity:1;stroke:none"/><rect style="fill:#fff;fill-opacity:1;stroke:none" id="rect3970" width="3" height="80" x="107" y="37" ry="1"/><rect id="rect3972" width="5" height="80" x="115" y="37" ry="1" style="fill:#fff;fill-opacity:1;stroke:none"/><rect style="fill:#fff;fill-opacity:1;stroke:none" id="rect3974" width="3.053" height="80" x="122" y="37" ry="1"/><rect style="fill:#f80000;fill-opacity:1;stroke:none" id="rect3976" width="2" height="110" x="-103.856" y="20" ry="1.375" transform="matrix(0,-1,1,0,0,0)"/></svg>