<svg xmlns="http://www.w3.org/2000/svg" viewBox="0 0 136 136"><title>face</title><path fill="#fbfcfd" stroke="#a1acba" stroke-width="4" d="M68 134A66 66 0 1 0 2 68a66 66 0 0 0 66 66z"/><path style="isolation:isolate" fill="#ecf1ff" d="M109.4 19.2A64.7 64.7 0 0 1 132 68.5 63.8 63.8 0 0 1 68.5 132a64.7 64.7 0 0 1-49.3-22.6A64.8 64.8 0 0 0 61.5 125 63.8 63.8 0 0 0 125 61.5a64.8 64.8 0 0 0-15.6-42.3z"/><path fill="none" stroke="#a1acba" stroke-linecap="round" stroke-width="5" d="M49.1 62.1a10 10 0 0 0-14.1 0M101.1 62.1a10 10 0 0 0-14.1 0"/><path fill="none" stroke="#a1acba" stroke-linecap="round" stroke-linejoin="round" stroke-width="5" d="M42 88a36.8 36.8 0 0 0 52 0"/></svg>